<svg xmlns="http://www.w3.org/2000/svg" height="255.118" width="278.173" version="1.0"><path d="M64.013 148.503l150.75 14.403 1.6 1.28.32.96v.32l.32 49.608-.32 1.92-.64.96-.96.64h-.32l-148.83-20.163h-.64l-1.28-.32-1.6-.96-.96-1.92.32-43.847v-1.28l.64-1.28 1.6-.32z" fill="#ccc" fill-rule="evenodd" stroke="#000" stroke-width=".32" stroke-linecap="round" stroke-linejoin="round"/><path d="M92.178 154.264l119.704 11.842v47.048L92.178 197.47v-43.207z" fill="none" stroke="#000" stroke-width=".32" stroke-linecap="round" stroke-linejoin="round"/><path d="M111.382 158.105l98.9 9.922v43.526l-98.9-13.122v-40.326z" fill="none" stroke="#000" stroke-width=".32" stroke-linecap="round" stroke-linejoin="round"/><path d="M111.382 158.105l45.77 4.48v18.884l-45.77-4.161v-19.203z" fill="none" stroke="#000" stroke-width=".32" stroke-linecap="round" stroke-linejoin="round"/><path d="M164.193 163.226l46.089 4.8v19.844l-46.09-5.441v-19.203zM164.193 186.59l46.089 5.76v19.203l-46.09-5.76v-19.204z" fill="#d9d9d9" fill-rule="evenodd" stroke="#000" stroke-width=".32" stroke-linecap="round" stroke-linejoin="round"/><path d="M111.382 160.345l45.77 4.481M111.382 162.906l45.77 4.48M111.382 165.786l45.77 4.48M111.382 168.027l45.77 4.48M111.382 170.587l45.77 4.48M111.382 172.827l45.77 4.481M111.382 175.388l45.77 4.48M111.382 180.829l45.77 4.48v19.203l-45.77-6.08v-17.603zM111.382 183.069l45.77 4.48M111.382 185.63l45.77 4.48M111.382 188.19l45.77 4.48M111.382 190.11l45.77 4.48M111.382 192.99l45.77 4.801M111.382 195.23l45.77 5.122M111.382 197.151l45.77 5.441" fill="none" stroke="#000" stroke-width=".32" stroke-linecap="round" stroke-linejoin="round"/><path d="M165.473 191.71v3.2l44.169 5.442v-3.2l-44.169-5.442z" fill-rule="evenodd" stroke="#000" stroke-width=".32" stroke-linecap="round" stroke-linejoin="round"/><ellipse ry="2.881" rx="2.08" cy="187.55" cx="97.459" fill-rule="evenodd" stroke="#000" stroke-width=".32" stroke-linecap="round" stroke-linejoin="round"/><ellipse ry="2.881" rx="2.08" cy="187.55" cx="98.42" fill="#bfbfbf" fill-rule="evenodd" stroke="#000" stroke-width=".32" stroke-linecap="round" stroke-linejoin="round"/><path d="M93.459 155.545v6.08l11.842 1.6v-6.72l-11.842-.96zM93.459 162.906v6.08l11.842 1.601v-6.721l-11.842-.96z" fill="#d9d9d9" fill-rule="evenodd" stroke="#000" stroke-width=".32" stroke-linecap="round" stroke-linejoin="round"/><path d="M165.473 188.51v1.92l3.52.32v-1.92l-3.52-.32z" fill-rule="evenodd" stroke="#000" stroke-width=".32" stroke-linecap="round" stroke-linejoin="round"/><path d="M181.156 189.79l12.163 1.28v2.88l12.802 1.6v1.281l-24.965-3.2v-3.841z" fill="gray" fill-rule="evenodd" stroke="#000" stroke-width=".32" stroke-linecap="round" stroke-linejoin="round"/><path d="M181.156 196.831v6.721l24.965 3.2v-6.72l-24.965-3.2z" fill="#a6a6a6" fill-rule="evenodd" stroke="#000" stroke-width=".32" stroke-linecap="round" stroke-linejoin="round"/><path d="M181.156 196.831v6.721l5.761-3.52-.32-2.56-5.44-.64z" fill="gray" fill-rule="evenodd" stroke="#000" stroke-width=".32" stroke-linecap="round" stroke-linejoin="round"/><path d="M192.678 191.71l.64-.64h.96l1.601.32.96.64.32 1.28v1.28l-2.24 4.161v6.081l-1.6.96-.32-7.04-.32-7.042z" fill="#8c8c8c" fill-rule="evenodd" stroke="#000" stroke-width=".32" stroke-linecap="round" stroke-linejoin="round"/><path d="M191.718 206.113l-1.28-11.202v-.64l.32-1.28 1.28-1.28 1.92-.32 1.28.32.321.96-.32 2.56-1.6 2.56-.32.64-.32.32.32 7.042-1.6.32z" fill="#bfbfbf" fill-rule="evenodd" stroke="#000" stroke-width=".32" stroke-linecap="round" stroke-linejoin="round"/><path d="M165.473 167.066v1.92l3.52.32v-1.6l-3.52-.64zM165.473 170.267v3.2l44.169 4.481v-3.52l-44.169-4.161z" fill-rule="evenodd" stroke="#000" stroke-width=".32" stroke-linecap="round" stroke-linejoin="round"/><path d="M181.156 175.068v7.04l24.965 3.201v-7.68l-24.965-2.561z" fill="#a6a6a6" fill-rule="evenodd" stroke="#000" stroke-width=".32" stroke-linecap="round" stroke-linejoin="round"/><path d="M66.573 153.304v6.401l15.363.64v-6.4l-15.363-.64z" fill="#d9d9d9" fill-rule="evenodd" stroke="#000" stroke-width=".32" stroke-linecap="round" stroke-linejoin="round"/><path d="M181.156 168.347l12.163.96v2.56l12.802 1.28v.96l-24.965-2.24v-3.52zM181.156 175.068v7.36l5.761-3.84v-2.88l-5.76-.64z" fill="gray" fill-rule="evenodd" stroke="#000" stroke-width=".32" stroke-linecap="round" stroke-linejoin="round"/><path d="M192.678 170.267l.64-.64h.96l1.601.32.96.64.32 1.28v1.28l-2.24 4.161v6.081l-1.6.96-.32-7.041-.32-7.041z" fill="#8c8c8c" fill-rule="evenodd" stroke="#000" stroke-width=".32" stroke-linecap="round" stroke-linejoin="round"/><path d="M191.718 184.67l-1.28-11.203v-.64l.32-1.28 1.28-1.28 1.92-.32 1.28.64.321.64-.32 2.56-1.6 2.56-.32.641-.32.32.32 7.041-1.6.32z" fill="#bfbfbf" fill-rule="evenodd" stroke="#000" stroke-width=".32" stroke-linecap="round" stroke-linejoin="round"/><path d="M214.763 162.906l1.6 1.6.32.64v.32l.32 49.608-.32 1.92-.64.96-.96.64h-.32l62.732-28.804v-45.447l-62.732 18.563z" fill="#8c8c8c" fill-rule="evenodd" stroke="#000" stroke-width=".32" stroke-linecap="round" stroke-linejoin="round"/><path d="M64.013 148.503l89.618-11.201 123.864 7.04-62.732 18.564-150.75-14.403z" fill="#b3b3b3" fill-rule="evenodd" stroke="#000" stroke-width=".32" stroke-linecap="round" stroke-linejoin="round"/><path d="M109.142 146.263l78.415 7.361 54.411-10.881-93.778-3.841-39.048 7.361z" fill="#8c8c8c" fill-rule="evenodd" stroke="#000" stroke-width=".32" stroke-linecap="round" stroke-linejoin="round"/><path d="M154.59 144.023l-2.88 3.52.64.32.96.64 1.6.32 2.561.64 3.521.32 4.801.32h6.081l11.202.32 5.122-.32 4.8-.64 3.841-.64 3.2-.32 1.921-.64h.64l-4.8-5.12-43.21 1.28z" fill="#8c8c8c" fill-rule="evenodd" stroke="#000" stroke-width=".32" stroke-linecap="round" stroke-linejoin="round"/><path d="M228.526 136.982l32.646-7.682v5.441l-32.646 8.642v-6.401z" fill="#666" fill-rule="evenodd" stroke="#000" stroke-width=".32" stroke-linecap="round" stroke-linejoin="round"/><path d="M150.75 140.502l3.84 3.52 36.488.96 9.282-2.88-49.61-1.6z" fill="#737373" fill-rule="evenodd" stroke="#000" stroke-width=".32" stroke-linecap="round" stroke-linejoin="round"/><path d="M241.328 0l24.325 26.884v103.057l-27.205 7.36L241.328 0z" fill="#999" fill-rule="evenodd" stroke="#000" stroke-width=".32" stroke-linecap="round" stroke-linejoin="round"/><path d="M101.46 1.28h-1.92l-1.6.32-2.24 1.28-.961 1.6-.32.64-1.92 110.738.32 2.24.32 1.28 1.6 1.921 1.28.64h.64l131.867 2.88.32-.32 1.28-.64.96-.96.32-1.92 3.2-116.818v-.64l-.32-1.28-.96-1.28-1.92-.64-129.946.96z" fill="#bfbfbf" fill-rule="evenodd" stroke="#000" stroke-width=".32" stroke-linecap="round" stroke-linejoin="round"/><path d="M92.498 115.858l.96 12.802.32.64.64 1.6 1.601 1.6 2.88.641 127.386 3.84 8.322.32h3.84l-8.321-13.441-1.28.96-.32.32v-.32l-131.867-2.88h-.64l-1.28-.64-1.6-1.601-.32-1.6-.32-2.24z" fill="#a6a6a6" fill-rule="evenodd" stroke="#000" stroke-width=".32" stroke-linecap="round" stroke-linejoin="round"/><path d="M231.406.32l9.922-.32 1.6.32.96 1.28.64.96v.32l-2.88 130.581-.64 1.6-.96 1.28-.96.64-.64.32-8.322-13.441 1.28-2.88 3.2-116.82v-.64l-.32-1.28-.96-1.28-1.92-.64z" fill="#999" fill-rule="evenodd" stroke="#000" stroke-width=".32" stroke-linecap="round" stroke-linejoin="round"/><path d="M110.422 13.762l-2.88.32-1.6 1.28-.641.96-.32.64-1.6 86.414v1.6l.64 1.28.96 1.281.96.32h.64l105.301 2.56.32-.32.96-.32.64-.96.32-1.6 2.561-90.894v-.64l-.32-.96-.64-.96-1.6-.64-103.701.64z" fill="#8c8c8c" fill-rule="evenodd" stroke="#000" stroke-width=".32" stroke-linecap="round" stroke-linejoin="round"/><path d="M112.983 16.003l-2.561.32-1.6.96-.64.96-.32.64-1.92 82.253v1.6l.64 1.28 1.28 1.28.96.32h.64l99.86 2.241h.32l.96-.64.64-.96.32-1.28 2.24-86.414v-.32l-.32-.96-.64-1.28-1.28-.32-98.58.32z" fill="gray" fill-rule="evenodd" stroke="#000" stroke-width=".32" stroke-linecap="round" stroke-linejoin="round"/><path d="M118.744 20.163l-2.24.32-1.601.96-.64.96-.32.32-1.6 73.292.64 2.24.96 1.28.96.32h.64l94.099 2.241h.32l.96-.64.64-.64.32-1.28 1.92-77.132v-.32l-.32-.96-.64-.96-.96-.32-93.138.32z" fill-rule="evenodd" stroke="#000" stroke-width=".32" stroke-linecap="round" stroke-linejoin="round"/><path d="M109.142 17.283h.32l.64-.32 2.88-.64 98.58-.64.96.32.64.32.32.64-.32 3.2h-.32l-.96-.32-93.138.32-2.56.32-.641.32h-.32l-6.081-3.52z" fill="#4d4d4d" fill-rule="evenodd" stroke="#000" stroke-width=".32" stroke-linecap="round" stroke-linejoin="round"/><path d="M113.303 98.896l-6.402 5.44.64.64 1.6.64 100.18 2.241 1.921-.96-1.6-4.8-94.099-2.241-1.6-.32-.64-.64z" fill="#999" fill-rule="evenodd" stroke="#000" stroke-width=".32" stroke-linecap="round" stroke-linejoin="round"/><path d="M109.142 146.263v5.441l78.415 7.041v-5.12l-78.415-7.362z" fill="#bfbfbf" fill-rule="evenodd" stroke="#000" stroke-width=".32" stroke-linecap="round" stroke-linejoin="round"/><path d="M187.557 153.624v5.121l54.411-9.601v-6.401l-54.41 10.881z" fill="#999" fill-rule="evenodd" stroke="#000" stroke-width=".32" stroke-linecap="round" stroke-linejoin="round"/><path d="M202.92 118.419h10.563v3.52H202.92z" fill="#ccc" fill-rule="evenodd" stroke="#000" stroke-width=".32" stroke-linecap="round" stroke-linejoin="round"/><path d="M195.559 118.739h2.56v1.92h-2.56z" fill-rule="evenodd" stroke="#000" stroke-width=".32" stroke-linecap="round" stroke-linejoin="round"/><path d="M105.301 133.141v5.761l123.225 4.48v-6.4L105.3 133.14z" fill="#8c8c8c" fill-rule="evenodd" stroke="#000" stroke-width=".32" stroke-linecap="round" stroke-linejoin="round"/><path d="M107.862 133.141l-1.28-11.522.64-8.001 63.052 1.28v8.642l1.28 11.521-63.692-1.92z" fill="none" stroke="#000" stroke-width=".32" stroke-linecap="round" stroke-linejoin="round"/><path d="M1.6 221.475l61.453-26.884L199.4 213.794l-1.92.96-.96.32-.32.32-6.402 4.8-8.002 4.802-8.962 4.8-18.563 8.962-8.962 3.84-7.682 3.2-3.52 1.281-2.88 1.28L1.6 221.475z" fill="#e6e6e6" fill-rule="evenodd" stroke="#000" stroke-width=".32" stroke-linecap="round" stroke-linejoin="round"/><path d="M132.186 214.754l-6.4 2.56 16.322 2.88 6.082-2.88-16.004-2.56z" fill-rule="evenodd" stroke="#000" stroke-width=".32" stroke-linecap="round" stroke-linejoin="round"/><path d="M192.678 224.996v4.48l-17.603 6.401 17.603-10.881z" fill="#8c8c8c" fill-rule="evenodd" stroke="#000" stroke-width=".32" stroke-linecap="round" stroke-linejoin="round"/><path d="M131.226 248.36l-.32.32-.96.96-.96 1.28.32 1.6 1.28 1.28 1.6.32h1.6l.64-.32h.32l.961-.32 1.6-.64 2.24-.64 2.561-.96 3.521-1.28 3.52-1.6 4.482-1.601 4.48-2.24 5.122-2.56 5.76-2.561 5.762-3.2 6.401-3.521 6.401-3.84 7.042-4.161 7.041-4.481.32-.32.64-2.56-.32-1.6-1.28-1.281-1.6-.32h-1.28l-.64.32-3.841 2.88-4.161 2.88-9.922 6.082-10.882 5.76-10.883 5.121-10.242 4.481-4.48 1.92-4.161 1.6-3.2 1.281-2.241.96-1.6.64-.64.32z" fill="#a6a6a6" fill-rule="evenodd" stroke="#000" stroke-width=".32" stroke-linecap="round" stroke-linejoin="round"/><path d="M131.226 248.36L1.6 221.474l-.64.64-.64.96-.32 1.28.64 2.24.64.64h.32l1.28.321 1.6.32 2.241.64 6.402 1.28 8.321 1.92 9.922 1.92 11.202 2.561 23.685 5.121 24.005 4.8 10.882 2.241 9.922 2.24 8.642 1.6 3.52.641 2.881.64 2.24.32 1.921.32h1.6l-1.28-.32-.64-.32-.64-.96v-.32l-.32-.96.64-1.28 1.6-1.6z" fill="#ccc" fill-rule="evenodd" stroke="#000" stroke-width=".32" stroke-linecap="round" stroke-linejoin="round"/><path d="M132.506 243.238l-25.285-5.12 32.967-14.723 25.285 4.161-32.967 15.682zM104.02 237.478l-17.923-3.521 6.721-3.2 5.442 1.28 6.72-3.2 7.682 1.6-6.08 2.24 4.8.96-7.361 3.84zM119.704 219.235l18.243 3.2-14.082 6.401-18.244-3.52 14.083-6.081zM109.142 210.593l-6.402 2.88 21.125 3.521 6.08-2.88-20.803-3.52zM86.097 206.753l-6.081 2.88 20.164 3.52 5.761-2.88-19.844-3.52zM64.333 203.552l-5.761 2.24 19.204 3.521 5.76-2.88-19.203-2.88zM47.05 203.872l5.76-2.56 4.801.96-5.44 2.56-5.122-.96zM84.497 233.317l32.326-14.402-75.855-13.443-28.486 12.162 9.922 2.24 3.841-1.92 4.481.96-3.2 1.92 45.128 9.602 3.201-1.28 4.16.96-3.2 1.28 7.682 1.92z" fill-rule="evenodd" stroke="#000" stroke-width=".32" stroke-linecap="round" stroke-linejoin="round"/><path d="M52.17 204.512l-.32-2.88-2.56-.64-1.28 2.88 4.16.64z" fill="#a6a6a6" fill-rule="evenodd" stroke="#000" stroke-width=".32" stroke-linecap="round" stroke-linejoin="round"/><path d="M52.17 204.512l4.801-2.24-1.28-2.24-3.84 1.6.32 2.88z" fill="#8c8c8c" fill-rule="evenodd" stroke="#000" stroke-width=".32" stroke-linecap="round" stroke-linejoin="round"/><path d="M48.97 200.992l4.16-1.6 2.561.32-3.84 1.6-2.881-.32z" fill="#bfbfbf" fill-rule="evenodd" stroke="#000" stroke-width=".32" stroke-linecap="round" stroke-linejoin="round"/><path d="M63.693 206.433l-.32-2.88-2.56-.64-1.281 2.88 4.16.64z" fill="#d9d9d9" fill-rule="evenodd" stroke="#000" stroke-width=".32" stroke-linecap="round" stroke-linejoin="round"/><path d="M63.693 206.433l4.8-2.24-1.28-2.241-3.84 1.6.32 2.88z" fill="#bfbfbf" fill-rule="evenodd" stroke="#000" stroke-width=".32" stroke-linecap="round" stroke-linejoin="round"/><path d="M60.812 202.912l3.84-1.6 2.561.32-3.84 1.92-2.56-.64z" fill="#f2f2f2" fill-rule="evenodd" stroke="#000" stroke-width=".32" stroke-linecap="round" stroke-linejoin="round"/><path d="M68.174 207.393v-3.2l-2.881-.64-1.28 3.2 4.16.64z" fill="#d9d9d9" fill-rule="evenodd" stroke="#000" stroke-width=".32" stroke-linecap="round" stroke-linejoin="round"/><path d="M68.494 207.393l4.8-2.24-1.28-2.561-3.84 1.6.32 3.2z" fill="#bfbfbf" fill-rule="evenodd" stroke="#000" stroke-width=".32" stroke-linecap="round" stroke-linejoin="round"/><path d="M65.293 203.552l4.16-1.28 2.561.32-3.84 1.6-2.881-.64z" fill="#f2f2f2" fill-rule="evenodd" stroke="#000" stroke-width=".32" stroke-linecap="round" stroke-linejoin="round"/><path d="M72.975 208.353l-.32-3.2-2.881-.64-1.28 3.2 4.48.64z" fill="#d9d9d9" fill-rule="evenodd" stroke="#000" stroke-width=".32" stroke-linecap="round" stroke-linejoin="round"/><path d="M72.975 208.353l5.12-2.56-1.28-2.24-4.16 1.6.32 3.2z" fill="#bfbfbf" fill-rule="evenodd" stroke="#000" stroke-width=".32" stroke-linecap="round" stroke-linejoin="round"/><path d="M69.774 204.512l4.48-1.6 2.561.32-4.16 1.92-2.881-.64z" fill="#f2f2f2" fill-rule="evenodd" stroke="#000" stroke-width=".32" stroke-linecap="round" stroke-linejoin="round"/><path d="M77.455 209.313l-.32-3.52-2.88-.64-.96 3.2 4.16.96z" fill="#d9d9d9" fill-rule="evenodd" stroke="#000" stroke-width=".32" stroke-linecap="round" stroke-linejoin="round"/><path d="M77.455 209.313l5.121-2.56-1.28-2.56-4.16 1.6.32 3.52z" fill="#bfbfbf" fill-rule="evenodd" stroke="#000" stroke-width=".32" stroke-linecap="round" stroke-linejoin="round"/><path d="M74.575 205.152l4.16-1.6 2.561.64-4.16 1.6-2.561-.64z" fill="#f2f2f2" fill-rule="evenodd" stroke="#000" stroke-width=".32" stroke-linecap="round" stroke-linejoin="round"/><path d="M85.137 210.273l-.32-3.52-2.56-.64-1.28 3.2 4.16.96z" fill="#a6a6a6" fill-rule="evenodd" stroke="#000" stroke-width=".32" stroke-linecap="round" stroke-linejoin="round"/><path d="M85.137 210.273l5.121-2.56-1.28-2.56-4.161 1.6.32 3.52z" fill="#8c8c8c" fill-rule="evenodd" stroke="#000" stroke-width=".32" stroke-linecap="round" stroke-linejoin="round"/><path d="M82.256 206.113l3.841-1.6 2.88.64-4.16 1.6-2.56-.64z" fill="#bfbfbf" fill-rule="evenodd" stroke="#000" stroke-width=".32" stroke-linecap="round" stroke-linejoin="round"/><path d="M90.258 211.233l-.32-3.52-3.2-.64-1.281 3.2 4.801.96z" fill="#a6a6a6" fill-rule="evenodd" stroke="#000" stroke-width=".32" stroke-linecap="round" stroke-linejoin="round"/><path d="M90.258 211.233l5.121-2.88-1.28-2.56-4.161 1.92.32 3.52z" fill="#8c8c8c" fill-rule="evenodd" stroke="#000" stroke-width=".32" stroke-linecap="round" stroke-linejoin="round"/><path d="M87.057 207.073l4.161-1.6 2.88.32-4.16 1.92-2.88-.64z" fill="#bfbfbf" fill-rule="evenodd" stroke="#000" stroke-width=".32" stroke-linecap="round" stroke-linejoin="round"/><path d="M95.059 211.873l-.32-3.2-2.88-.64-1.601 3.2 4.8.64z" fill="#a6a6a6" fill-rule="evenodd" stroke="#000" stroke-width=".32" stroke-linecap="round" stroke-linejoin="round"/><path d="M95.059 211.873l5.441-2.56-1.28-2.56-4.481 1.92.32 3.2z" fill="#8c8c8c" fill-rule="evenodd" stroke="#000" stroke-width=".32" stroke-linecap="round" stroke-linejoin="round"/><path d="M91.858 208.033l4.481-1.6 2.56.32-4.16 1.92-2.88-.64z" fill="#bfbfbf" fill-rule="evenodd" stroke="#000" stroke-width=".32" stroke-linecap="round" stroke-linejoin="round"/><path d="M99.86 212.834l-.32-3.52-2.88-.641-1.281 3.52 4.48.64z" fill="#a6a6a6" fill-rule="evenodd" stroke="#000" stroke-width=".32" stroke-linecap="round" stroke-linejoin="round"/><path d="M99.86 212.834l5.441-2.56-1.6-2.881-4.161 1.92.32 3.52z" fill="#8c8c8c" fill-rule="evenodd" stroke="#000" stroke-width=".32" stroke-linecap="round" stroke-linejoin="round"/><path d="M96.66 208.673l4.48-1.6 2.88.32-4.48 1.92-2.88-.64z" fill="#bfbfbf" fill-rule="evenodd" stroke="#000" stroke-width=".32" stroke-linecap="round" stroke-linejoin="round"/><path d="M108.182 214.114v-3.52l-2.881-.64-1.28 3.2 4.16.96z" fill="#d9d9d9" fill-rule="evenodd" stroke="#000" stroke-width=".32" stroke-linecap="round" stroke-linejoin="round"/><path d="M108.502 214.114l5.12-2.56-1.28-2.561-4.16 1.6.32 3.52z" fill="#bfbfbf" fill-rule="evenodd" stroke="#000" stroke-width=".32" stroke-linecap="round" stroke-linejoin="round"/><path d="M105.301 209.953l4.16-1.6 2.881.64-4.16 1.6-2.881-.64z" fill="#f2f2f2" fill-rule="evenodd" stroke="#000" stroke-width=".32" stroke-linecap="round" stroke-linejoin="round"/><path d="M113.303 215.074v-3.52l-3.201-.64-1.28 3.2 4.48.96z" fill="#d9d9d9" fill-rule="evenodd" stroke="#000" stroke-width=".32" stroke-linecap="round" stroke-linejoin="round"/><path d="M113.303 215.074l5.76-2.56-1.6-2.88-4.48 1.92.32 3.52z" fill="#bfbfbf" fill-rule="evenodd" stroke="#000" stroke-width=".32" stroke-linecap="round" stroke-linejoin="round"/><path d="M110.102 210.913l4.48-1.6 2.881.32-4.16 1.92-3.201-.64z" fill="#f2f2f2" fill-rule="evenodd" stroke="#000" stroke-width=".32" stroke-linecap="round" stroke-linejoin="round"/><path d="M118.424 216.034l-.32-3.52-2.881-.96-1.28 3.52 4.48.96z" fill="#d9d9d9" fill-rule="evenodd" stroke="#000" stroke-width=".32" stroke-linecap="round" stroke-linejoin="round"/><path d="M118.424 216.034l5.76-2.88-1.6-2.56-4.48 1.92.32 3.52z" fill="#bfbfbf" fill-rule="evenodd" stroke="#000" stroke-width=".32" stroke-linecap="round" stroke-linejoin="round"/><path d="M115.223 211.553l4.48-1.6 2.881.64-4.48 1.92-2.881-.96z" fill="#f2f2f2" fill-rule="evenodd" stroke="#000" stroke-width=".32" stroke-linecap="round" stroke-linejoin="round"/><path d="M123.545 216.994l-.32-3.84-3.201-.64-1.28 3.52 4.8.96z" fill="#d9d9d9" fill-rule="evenodd" stroke="#000" stroke-width=".32" stroke-linecap="round" stroke-linejoin="round"/><path d="M123.545 216.994l5.44-2.88-1.28-2.88-4.48 1.92.32 3.84z" fill="#bfbfbf" fill-rule="evenodd" stroke="#000" stroke-width=".32" stroke-linecap="round" stroke-linejoin="round"/><path d="M120.024 212.514l4.8-1.6 2.881.32-4.48 1.92-3.201-.64z" fill="#f2f2f2" fill-rule="evenodd" stroke="#000" stroke-width=".32" stroke-linecap="round" stroke-linejoin="round"/><path d="M131.546 218.274l-.32-3.52-2.88-.96-1.6 3.52 4.8.96z" fill="#a6a6a6" fill-rule="evenodd" stroke="#000" stroke-width=".32" stroke-linecap="round" stroke-linejoin="round"/><path d="M131.546 218.274l5.761-2.88-1.6-2.56-4.48 1.6.32 3.84z" fill="#8c8c8c" fill-rule="evenodd" stroke="#000" stroke-width=".32" stroke-linecap="round" stroke-linejoin="round"/><path d="M128.346 213.794l4.48-1.6 2.881.64-4.48 1.92-2.881-.96z" fill="#bfbfbf" fill-rule="evenodd" stroke="#000" stroke-width=".32" stroke-linecap="round" stroke-linejoin="round"/><path d="M136.667 219.235l-.32-3.841-3.2-.64-1.28 3.52 4.8.96z" fill="#a6a6a6" fill-rule="evenodd" stroke="#000" stroke-width=".32" stroke-linecap="round" stroke-linejoin="round"/><path d="M136.667 219.235l5.441-2.88-1.28-2.561-4.48 1.92.32 3.52z" fill="#8c8c8c" fill-rule="evenodd" stroke="#000" stroke-width=".32" stroke-linecap="round" stroke-linejoin="round"/><path d="M133.147 214.754l4.8-1.6 2.881.64-4.48 1.6-3.201-.64z" fill="#bfbfbf" fill-rule="evenodd" stroke="#000" stroke-width=".32" stroke-linecap="round" stroke-linejoin="round"/><path d="M141.788 220.195l-.32-3.84-3.2-.64-1.28 3.52 4.8.96z" fill="#a6a6a6" fill-rule="evenodd" stroke="#000" stroke-width=".32" stroke-linecap="round" stroke-linejoin="round"/><path d="M141.788 220.195l5.441-2.88-1.6-2.881-4.16 1.92.32 3.84z" fill="#8c8c8c" fill-rule="evenodd" stroke="#000" stroke-width=".32" stroke-linecap="round" stroke-linejoin="round"/><path d="M138.268 215.714l4.48-1.6 2.881.32-4.16 1.92-3.201-.64z" fill="#bfbfbf" fill-rule="evenodd" stroke="#000" stroke-width=".32" stroke-linecap="round" stroke-linejoin="round"/><path d="M41.928 208.993l-.32-3.2-2.56-.64-1.28 2.88 4.16.96z" fill="#a6a6a6" fill-rule="evenodd" stroke="#000" stroke-width=".32" stroke-linecap="round" stroke-linejoin="round"/><path d="M41.928 208.993l4.801-2.56-1.28-2.24-3.84 1.6.32 3.2z" fill="#8c8c8c" fill-rule="evenodd" stroke="#000" stroke-width=".32" stroke-linecap="round" stroke-linejoin="round"/><path d="M39.048 205.152l3.84-1.28 2.561.32-3.84 1.6-2.561-.64zM103.38 220.835l5.442-2.24-1.6-3.521-3.841 1.6v4.16z" fill="#bfbfbf" fill-rule="evenodd" stroke="#000" stroke-width=".32" stroke-linecap="round" stroke-linejoin="round"/><path d="M103.38 220.835v-4.16L43.53 206.112l-1.28 2.88 61.132 11.842z" fill="#d9d9d9" fill-rule="evenodd" stroke="#000" stroke-width=".32" stroke-linecap="round" stroke-linejoin="round"/><path d="M43.529 206.113l4.16-1.6 59.532 10.561-3.84 1.6-59.852-10.561z" fill="#f2f2f2" fill-rule="evenodd" stroke="#000" stroke-width=".32" stroke-linecap="round" stroke-linejoin="round"/><path d="M109.462 222.115l-.32-4.16-3.52-.96-1.601 3.84 5.44 1.28z" fill="#d9d9d9" fill-rule="evenodd" stroke="#000" stroke-width=".32" stroke-linecap="round" stroke-linejoin="round"/><path d="M109.462 222.115l6.721-3.2-1.92-3.2-5.121 2.24.32 4.16z" fill="#bfbfbf" fill-rule="evenodd" stroke="#000" stroke-width=".32" stroke-linecap="round" stroke-linejoin="round"/><path d="M105.621 216.994l5.441-1.92 3.2.64-5.12 2.24-3.52-.96z" fill="#f2f2f2" fill-rule="evenodd" stroke="#000" stroke-width=".32" stroke-linecap="round" stroke-linejoin="round"/><path d="M119.064 223.395l-.32-4.16-3.521-.64-1.6 3.84 5.44.96z" fill="#a6a6a6" fill-rule="evenodd" stroke="#000" stroke-width=".32" stroke-linecap="round" stroke-linejoin="round"/><path d="M119.064 223.395l6.401-3.2-1.6-3.2-5.121 2.24.32 4.16z" fill="#8c8c8c" fill-rule="evenodd" stroke="#000" stroke-width=".32" stroke-linecap="round" stroke-linejoin="round"/><path d="M115.223 218.595l5.121-1.92 3.52.32-5.12 2.24-3.521-.64z" fill="#bfbfbf" fill-rule="evenodd" stroke="#000" stroke-width=".32" stroke-linecap="round" stroke-linejoin="round"/><path d="M125.145 224.676l-.32-4.161-3.84-.96-1.601 4.16 5.76.96z" fill="#a6a6a6" fill-rule="evenodd" stroke="#000" stroke-width=".32" stroke-linecap="round" stroke-linejoin="round"/><path d="M125.145 224.676l6.401-3.201-1.92-3.2-4.801 2.24.32 4.16z" fill="#8c8c8c" fill-rule="evenodd" stroke="#000" stroke-width=".32" stroke-linecap="round" stroke-linejoin="round"/><path d="M120.984 219.555l5.441-1.92 3.2.64-4.8 2.24-3.84-.96z" fill="#bfbfbf" fill-rule="evenodd" stroke="#000" stroke-width=".32" stroke-linecap="round" stroke-linejoin="round"/><path d="M130.906 225.636l-.32-4.161-3.84-.96-1.601 4.16 5.761.96z" fill="#a6a6a6" fill-rule="evenodd" stroke="#000" stroke-width=".32" stroke-linecap="round" stroke-linejoin="round"/><path d="M130.906 225.636l6.401-3.2-1.6-3.201-5.121 2.24.32 4.16z" fill="#8c8c8c" fill-rule="evenodd" stroke="#000" stroke-width=".32" stroke-linecap="round" stroke-linejoin="round"/><path d="M126.745 220.515l5.441-1.92 3.521.64-5.121 2.24-3.84-.96z" fill="#bfbfbf" fill-rule="evenodd" stroke="#000" stroke-width=".32" stroke-linecap="round" stroke-linejoin="round"/><path d="M140.508 227.556l-.32-4.16-3.52-.96-1.601 4.16 5.441.96z" fill="#a6a6a6" fill-rule="evenodd" stroke="#000" stroke-width=".32" stroke-linecap="round" stroke-linejoin="round"/><path d="M140.508 227.556l6.721-3.2-1.92-3.201-5.121 2.24.32 4.161z" fill="#8c8c8c" fill-rule="evenodd" stroke="#000" stroke-width=".32" stroke-linecap="round" stroke-linejoin="round"/><path d="M136.667 222.435l5.441-1.92 3.201.64-5.121 2.24-3.52-.96z" fill="#bfbfbf" fill-rule="evenodd" stroke="#000" stroke-width=".32" stroke-linecap="round" stroke-linejoin="round"/><path d="M146.59 228.836l-.32-4.48-3.522-.64-1.6 3.84 5.441 1.28z" fill="#a6a6a6" fill-rule="evenodd" stroke="#000" stroke-width=".32" stroke-linecap="round" stroke-linejoin="round"/><path d="M146.59 228.836l6.4-3.2-1.6-3.2-5.12 1.92.32 4.48z" fill="#8c8c8c" fill-rule="evenodd" stroke="#000" stroke-width=".32" stroke-linecap="round" stroke-linejoin="round"/><path d="M142.748 223.715l5.121-1.92 3.521.64-5.12 1.92-3.522-.64z" fill="#bfbfbf" fill-rule="evenodd" stroke="#000" stroke-width=".32" stroke-linecap="round" stroke-linejoin="round"/><path d="M152.35 229.796l-.32-4.16-3.52-.96-1.6 4.16 5.44.96z" fill="#a6a6a6" fill-rule="evenodd" stroke="#000" stroke-width=".32" stroke-linecap="round" stroke-linejoin="round"/><path d="M152.35 229.796l6.402-3.2-1.6-3.2-5.122 2.24.32 4.16z" fill="#8c8c8c" fill-rule="evenodd" stroke="#000" stroke-width=".32" stroke-linecap="round" stroke-linejoin="round"/><path d="M148.51 224.676l5.12-1.92 3.521.64-5.12 2.24-3.521-.96z" fill="#bfbfbf" fill-rule="evenodd" stroke="#000" stroke-width=".32" stroke-linecap="round" stroke-linejoin="round"/><path d="M158.112 230.756l-.32-4.48-3.521-.64-1.6 3.84 5.44 1.28z" fill="#a6a6a6" fill-rule="evenodd" stroke="#000" stroke-width=".32" stroke-linecap="round" stroke-linejoin="round"/><path d="M158.112 230.756l6.72-3.2-1.92-3.2-5.12 1.92.32 4.48z" fill="#8c8c8c" fill-rule="evenodd" stroke="#000" stroke-width=".32" stroke-linecap="round" stroke-linejoin="round"/><path d="M154.27 225.636l5.442-1.92 3.2.64-5.12 1.92-3.521-.64z" fill="#bfbfbf" fill-rule="evenodd" stroke="#000" stroke-width=".32" stroke-linecap="round" stroke-linejoin="round"/><path d="M39.048 211.233l4.48-2.24-.96-2.56-3.84 1.6.32 3.2z" fill="#8c8c8c" fill-rule="evenodd" stroke="#000" stroke-width=".32" stroke-linecap="round" stroke-linejoin="round"/><path d="M39.048 211.233l-.32-3.2-5.121-.96-1.6 2.88 7.04 1.28z" fill="#a6a6a6" fill-rule="evenodd" stroke="#000" stroke-width=".32" stroke-linecap="round" stroke-linejoin="round"/><path d="M33.607 207.073l4.48-1.28 4.481.64-3.84 1.6-5.121-.96z" fill="#bfbfbf" fill-rule="evenodd" stroke="#000" stroke-width=".32" stroke-linecap="round" stroke-linejoin="round"/><path d="M93.459 222.115l-.32-3.52-52.49-10.242-1.281 2.88 54.09 10.882z" fill="#d9d9d9" fill-rule="evenodd" stroke="#000" stroke-width=".32" stroke-linecap="round" stroke-linejoin="round"/><path d="M93.459 222.115l5.44-2.24-1.6-3.2-4.16 1.92.32 3.52z" fill="#bfbfbf" fill-rule="evenodd" stroke="#000" stroke-width=".32" stroke-linecap="round" stroke-linejoin="round"/><path d="M40.648 208.353l3.84-1.28 52.811 9.601-4.16 1.92-52.49-10.241z" fill="#f2f2f2" fill-rule="evenodd" stroke="#000" stroke-width=".32" stroke-linecap="round" stroke-linejoin="round"/><path d="M36.167 214.434l-.32-3.2-7.681-1.6-1.6 2.88 9.601 1.92z" fill="#a6a6a6" fill-rule="evenodd" stroke="#000" stroke-width=".32" stroke-linecap="round" stroke-linejoin="round"/><path d="M36.167 214.434l5.121-1.92-1.28-2.88-4.16 1.6.32 3.2z" fill="#8c8c8c" fill-rule="evenodd" stroke="#000" stroke-width=".32" stroke-linecap="round" stroke-linejoin="round"/><path d="M28.166 209.633l4.16-1.6 7.682 1.6-4.16 1.6-7.682-1.6z" fill="#bfbfbf" fill-rule="evenodd" stroke="#000" stroke-width=".32" stroke-linecap="round" stroke-linejoin="round"/><path d="M89.298 225.316l-.64-3.841-50.89-9.922-1.28 3.2 52.81 10.563z" fill="#d9d9d9" fill-rule="evenodd" stroke="#000" stroke-width=".32" stroke-linecap="round" stroke-linejoin="round"/><path d="M89.298 225.316l5.76-2.88-1.92-3.521-4.48 2.56.64 3.84z" fill="#bfbfbf" fill-rule="evenodd" stroke="#000" stroke-width=".32" stroke-linecap="round" stroke-linejoin="round"/><path d="M37.768 211.553l5.12-1.92 50.25 9.282-4.48 2.56-50.89-9.922z" fill="#f2f2f2" fill-rule="evenodd" stroke="#000" stroke-width=".32" stroke-linecap="round" stroke-linejoin="round"/><path d="M96.98 227.556v-4.48l-5.442-.96-1.6 3.84 7.041 1.6z" fill="#a6a6a6" fill-rule="evenodd" stroke="#000" stroke-width=".32" stroke-linecap="round" stroke-linejoin="round"/><path d="M91.538 222.115l5.441-2.24-.64-1.6 3.2-1.28 9.603 1.6-12.163 4.48-5.44-.96z" fill="#bfbfbf" fill-rule="evenodd" stroke="#000" stroke-width=".32" stroke-linecap="round" stroke-linejoin="round"/><path d="M96.98 227.556l13.442-6.081-1.28-2.88-12.163 4.48v4.481z" fill="#8c8c8c" fill-rule="evenodd" stroke="#000" stroke-width=".32" stroke-linecap="round" stroke-linejoin="round"/><path d="M96.34 218.274l-.32 1.92.96-.32-.64-1.6zM112.342 226.276l-.64-4.16-3.52-.641-1.6 3.84 5.76.96z" fill="#a6a6a6" fill-rule="evenodd" stroke="#000" stroke-width=".32" stroke-linecap="round" stroke-linejoin="round"/><path d="M112.342 226.276l6.402-3.2-1.92-3.201-5.122 2.24.64 4.16z" fill="#8c8c8c" fill-rule="evenodd" stroke="#000" stroke-width=".32" stroke-linecap="round" stroke-linejoin="round"/><path d="M108.182 221.475l5.44-1.92 3.201.32-5.12 2.24-3.521-.64z" fill="#bfbfbf" fill-rule="evenodd" stroke="#000" stroke-width=".32" stroke-linecap="round" stroke-linejoin="round"/><path d="M118.104 227.556l-.32-4.16-3.521-.96-1.6 3.84 5.44 1.28z" fill="#a6a6a6" fill-rule="evenodd" stroke="#000" stroke-width=".32" stroke-linecap="round" stroke-linejoin="round"/><path d="M118.104 227.556l6.4-3.2-1.6-3.201-5.12 2.24.32 4.161z" fill="#8c8c8c" fill-rule="evenodd" stroke="#000" stroke-width=".32" stroke-linecap="round" stroke-linejoin="round"/><path d="M114.263 222.435l5.12-1.92 3.522.64-5.122 2.24-3.52-.96z" fill="#bfbfbf" fill-rule="evenodd" stroke="#000" stroke-width=".32" stroke-linecap="round" stroke-linejoin="round"/><path d="M123.865 228.516l-.32-4.16-3.521-.96-1.6 4.16 5.44.96z" fill="#a6a6a6" fill-rule="evenodd" stroke="#000" stroke-width=".32" stroke-linecap="round" stroke-linejoin="round"/><path d="M123.865 228.516l6.401-3.2-1.6-3.2-5.121 2.24.32 4.16z" fill="#8c8c8c" fill-rule="evenodd" stroke="#000" stroke-width=".32" stroke-linecap="round" stroke-linejoin="round"/><path d="M120.024 223.395l5.12-1.92 3.522.64-5.121 2.24-3.521-.96z" fill="#bfbfbf" fill-rule="evenodd" stroke="#000" stroke-width=".32" stroke-linecap="round" stroke-linejoin="round"/><path d="M32.647 217.634l5.44-2.24-1.28-2.88-4.16 1.6v3.52z" fill="#8c8c8c" fill-rule="evenodd" stroke="#000" stroke-width=".32" stroke-linecap="round" stroke-linejoin="round"/><path d="M32.647 217.634v-3.52l-10.883-2.24-1.6 3.2 12.483 2.56z" fill="#a6a6a6" fill-rule="evenodd" stroke="#000" stroke-width=".32" stroke-linecap="round" stroke-linejoin="round"/><path d="M21.764 211.873l4.481-1.28 10.562 1.92-4.16 1.6-10.883-2.24z" fill="#bfbfbf" fill-rule="evenodd" stroke="#000" stroke-width=".32" stroke-linecap="round" stroke-linejoin="round"/><path d="M80.656 227.876l-.32-4.16-45.449-8.962-1.6 3.2 47.37 9.922z" fill="#d9d9d9" fill-rule="evenodd" stroke="#000" stroke-width=".32" stroke-linecap="round" stroke-linejoin="round"/><path d="M34.887 214.754l4.8-1.92 45.13 8.961-4.481 1.92-45.449-8.961z" fill="#f2f2f2" fill-rule="evenodd" stroke="#000" stroke-width=".32" stroke-linecap="round" stroke-linejoin="round"/><path d="M80.656 227.876l6.081-3.52-1.92-2.56-4.481 1.92.32 4.16z" fill="#bfbfbf" fill-rule="evenodd" stroke="#000" stroke-width=".32" stroke-linecap="round" stroke-linejoin="round"/><path d="M90.898 230.436l7.042-3.2-1.6-3.2-5.442 1.92v4.48z" fill="#8c8c8c" fill-rule="evenodd" stroke="#000" stroke-width=".32" stroke-linecap="round" stroke-linejoin="round"/><path d="M90.898 230.436v-4.48l-8.322-1.6-1.6 3.52 9.922 2.56z" fill="#a6a6a6" fill-rule="evenodd" stroke="#000" stroke-width=".32" stroke-linecap="round" stroke-linejoin="round"/><path d="M82.576 224.355l5.442-1.92 8.321 1.6-5.44 1.92-8.323-1.6z" fill="#bfbfbf" fill-rule="evenodd" stroke="#000" stroke-width=".32" stroke-linecap="round" stroke-linejoin="round"/><path d="M105.301 232.997l-.32-4.16-3.84-.961-1.601 4.16 5.761.96z" fill="#a6a6a6" fill-rule="evenodd" stroke="#000" stroke-width=".32" stroke-linecap="round" stroke-linejoin="round"/><path d="M105.301 232.997l7.041-2.88-1.92-3.201-5.441 1.92.32 4.16z" fill="#8c8c8c" fill-rule="evenodd" stroke="#000" stroke-width=".32" stroke-linecap="round" stroke-linejoin="round"/><path d="M101.14 227.876l5.441-1.92 3.841.96-5.441 1.92-3.84-.96z" fill="#bfbfbf" fill-rule="evenodd" stroke="#000" stroke-width=".32" stroke-linecap="round" stroke-linejoin="round"/><path d="M22.084 219.555v-3.52l-6.72-1.601-1.601 3.2 8.321 1.92z" fill="#a6a6a6" fill-rule="evenodd" stroke="#000" stroke-width=".32" stroke-linecap="round" stroke-linejoin="round"/><path d="M22.084 219.555l5.121-2.56-1.28-2.881-3.84 1.92v3.52z" fill="#8c8c8c" fill-rule="evenodd" stroke="#000" stroke-width=".32" stroke-linecap="round" stroke-linejoin="round"/><path d="M15.363 214.434l4.481-1.6 6.081 1.28-3.84 1.92-6.722-1.6z" fill="#bfbfbf" fill-rule="evenodd" stroke="#000" stroke-width=".32" stroke-linecap="round" stroke-linejoin="round"/><path d="M32.647 221.475l4.8-2.56-1.28-2.56-3.84 1.6.32 3.52z" fill="#8c8c8c" fill-rule="evenodd" stroke="#000" stroke-width=".32" stroke-linecap="round" stroke-linejoin="round"/><path d="M32.326 221.475v-3.84l-2.88-.64-1.28 3.52 4.16.96z" fill="#a6a6a6" fill-rule="evenodd" stroke="#000" stroke-width=".32" stroke-linecap="round" stroke-linejoin="round"/><path d="M29.446 216.994l3.84-1.28 2.881.64-3.84 1.28-2.881-.64z" fill="#bfbfbf" fill-rule="evenodd" stroke="#000" stroke-width=".32" stroke-linecap="round" stroke-linejoin="round"/><path d="M40.968 223.395v-3.52l-7.041-1.6-1.6 3.2 8.641 1.92z" fill="#a6a6a6" fill-rule="evenodd" stroke="#000" stroke-width=".32" stroke-linecap="round" stroke-linejoin="round"/><path d="M40.968 223.395l5.121-2.56-1.28-2.88-3.84 1.92v3.52z" fill="#8c8c8c" fill-rule="evenodd" stroke="#000" stroke-width=".32" stroke-linecap="round" stroke-linejoin="round"/><path d="M33.927 218.274l4.48-1.6 6.402 1.28-3.84 1.92-7.042-1.6z" fill="#bfbfbf" fill-rule="evenodd" stroke="#000" stroke-width=".32" stroke-linecap="round" stroke-linejoin="round"/><path d="M49.93 225.316v-3.841l-7.041-1.6-1.6 3.52 8.641 1.92z" fill="#d9d9d9" fill-rule="evenodd" stroke="#000" stroke-width=".32" stroke-linecap="round" stroke-linejoin="round"/><path d="M49.93 225.316l5.121-2.56-1.28-2.881-3.841 1.6v3.84z" fill="#bfbfbf" fill-rule="evenodd" stroke="#000" stroke-width=".32" stroke-linecap="round" stroke-linejoin="round"/><path d="M42.889 219.875l4.48-1.6 6.402 1.28-3.841 1.92-7.041-1.6z" fill="#f2f2f2" fill-rule="evenodd" stroke="#000" stroke-width=".32" stroke-linecap="round" stroke-linejoin="round"/><path d="M64.013 228.516v-3.84l-12.163-2.56-1.6 3.2 13.763 3.2z" fill="#a6a6a6" fill-rule="evenodd" stroke="#000" stroke-width=".32" stroke-linecap="round" stroke-linejoin="round"/><path d="M51.85 222.115l4.161-1.92 12.803 2.56-4.801 1.92-12.163-2.56z" fill="#bfbfbf" fill-rule="evenodd" stroke="#000" stroke-width=".32" stroke-linecap="round" stroke-linejoin="round"/><path d="M64.013 228.516l6.081-2.88-1.28-2.88-4.801 1.92v3.84z" fill="#8c8c8c" fill-rule="evenodd" stroke="#000" stroke-width=".32" stroke-linecap="round" stroke-linejoin="round"/><path d="M72.975 230.436v-4.16l-7.362-1.28-1.28 3.2 8.642 2.24z" fill="#a6a6a6" fill-rule="evenodd" stroke="#000" stroke-width=".32" stroke-linecap="round" stroke-linejoin="round"/><path d="M65.613 224.996l6.721-1.92 6.402 1.28-5.761 1.92-7.362-1.28z" fill="#bfbfbf" fill-rule="evenodd" stroke="#000" stroke-width=".32" stroke-linecap="round" stroke-linejoin="round"/><path d="M72.975 230.436l7.04-3.2-1.28-2.88-5.76 1.92v4.16z" fill="#8c8c8c" fill-rule="evenodd" stroke="#000" stroke-width=".32" stroke-linecap="round" stroke-linejoin="round"/><path d="M84.817 232.997l-.32-4.16-5.761-1.281-1.28 3.84 7.36 1.6z" fill="#a6a6a6" fill-rule="evenodd" stroke="#000" stroke-width=".32" stroke-linecap="round" stroke-linejoin="round"/><path d="M84.817 232.997l6.721-3.2-1.6-2.881-5.441 1.92.32 4.16z" fill="#8c8c8c" fill-rule="evenodd" stroke="#000" stroke-width=".32" stroke-linecap="round" stroke-linejoin="round"/><path d="M78.736 227.556l5.76-1.92 5.442 1.28-5.441 1.92-5.761-1.28z" fill="#bfbfbf" fill-rule="evenodd" stroke="#000" stroke-width=".32" stroke-linecap="round" stroke-linejoin="round"/><path d="M92.498 234.597l-.32-4.16-3.84-.64-1.28 3.84 5.44.96z" fill="#a6a6a6" fill-rule="evenodd" stroke="#000" stroke-width=".32" stroke-linecap="round" stroke-linejoin="round"/><path d="M92.498 234.597l6.402-3.2-1.6-2.88-5.122 1.92.32 4.16z" fill="#8c8c8c" fill-rule="evenodd" stroke="#000" stroke-width=".32" stroke-linecap="round" stroke-linejoin="round"/><path d="M88.338 229.796l5.44-1.92 3.521.64-5.12 1.92-3.841-.64z" fill="#bfbfbf" fill-rule="evenodd" stroke="#000" stroke-width=".32" stroke-linecap="round" stroke-linejoin="round"/><path d="M98.26 235.877l-.32-4.16-3.521-.96-1.6 4.16 5.44.96z" fill="#a6a6a6" fill-rule="evenodd" stroke="#000" stroke-width=".32" stroke-linecap="round" stroke-linejoin="round"/><path d="M98.26 235.877l6.72-3.2-1.92-3.2-5.12 2.24.32 4.16z" fill="#8c8c8c" fill-rule="evenodd" stroke="#000" stroke-width=".32" stroke-linecap="round" stroke-linejoin="round"/><path d="M94.419 230.756l5.44-1.92 3.202.64-5.121 2.24-3.521-.96z" fill="#bfbfbf" fill-rule="evenodd" stroke="#000" stroke-width=".32" stroke-linecap="round" stroke-linejoin="round"/><path d="M104.02 236.837l-.32-4.16-3.52-.64-1.6 3.84 5.44.96z" fill="#a6a6a6" fill-rule="evenodd" stroke="#000" stroke-width=".32" stroke-linecap="round" stroke-linejoin="round"/><path d="M104.02 236.837l6.722-3.2-1.92-3.2-5.121 2.24.32 4.16z" fill="#8c8c8c" fill-rule="evenodd" stroke="#000" stroke-width=".32" stroke-linecap="round" stroke-linejoin="round"/><path d="M100.18 232.037l5.441-2.24 3.2.64-5.12 2.24-3.521-.64z" fill="#bfbfbf" fill-rule="evenodd" stroke="#000" stroke-width=".32" stroke-linecap="round" stroke-linejoin="round"/><path d="M133.787 230.436l-.32-4.16-3.841-.96-1.28 4.16 5.44.96z" fill="#d9d9d9" fill-rule="evenodd" stroke="#000" stroke-width=".32" stroke-linecap="round" stroke-linejoin="round"/><path d="M133.787 230.436l6.4-3.2-1.6-3.2-5.12 2.24.32 4.16z" fill="#bfbfbf" fill-rule="evenodd" stroke="#000" stroke-width=".32" stroke-linecap="round" stroke-linejoin="round"/><path d="M129.626 225.316l5.44-1.92 3.522.64-5.121 2.24-3.841-.96z" fill="#f2f2f2" fill-rule="evenodd" stroke="#000" stroke-width=".32" stroke-linecap="round" stroke-linejoin="round"/><path d="M139.548 231.397l-.32-4.161-3.52-.64-1.601 3.84 5.44.96z" fill="#d9d9d9" fill-rule="evenodd" stroke="#000" stroke-width=".32" stroke-linecap="round" stroke-linejoin="round"/><path d="M139.548 231.397l6.721-2.88-1.92-3.201-5.121 1.92.32 4.16z" fill="#bfbfbf" fill-rule="evenodd" stroke="#000" stroke-width=".32" stroke-linecap="round" stroke-linejoin="round"/><path d="M135.707 226.596l5.441-1.92 3.2.64-5.12 1.92-3.52-.64z" fill="#f2f2f2" fill-rule="evenodd" stroke="#000" stroke-width=".32" stroke-linecap="round" stroke-linejoin="round"/><path d="M145.309 232.677l-.32-4.16-3.52-.961-1.601 3.84 5.441 1.28z" fill="#d9d9d9" fill-rule="evenodd" stroke="#000" stroke-width=".32" stroke-linecap="round" stroke-linejoin="round"/><path d="M145.309 232.677l6.721-3.2-1.92-3.201-5.121 2.24.32 4.16z" fill="#bfbfbf" fill-rule="evenodd" stroke="#000" stroke-width=".32" stroke-linecap="round" stroke-linejoin="round"/><path d="M141.468 227.556l5.441-1.92 3.2.64-5.12 2.24-3.52-.96z" fill="#f2f2f2" fill-rule="evenodd" stroke="#000" stroke-width=".32" stroke-linecap="round" stroke-linejoin="round"/><path d="M127.385 233.317l-.32-4.16-3.84-.64-1.6 3.84 5.76.96z" fill="#d9d9d9" fill-rule="evenodd" stroke="#000" stroke-width=".32" stroke-linecap="round" stroke-linejoin="round"/><path d="M127.385 233.317l6.402-3.2-1.6-3.201-5.122 2.24.32 4.16z" fill="#bfbfbf" fill-rule="evenodd" stroke="#000" stroke-width=".32" stroke-linecap="round" stroke-linejoin="round"/><path d="M123.225 228.516l5.44-2.24 3.521.64-5.12 2.24-3.841-.64z" fill="#f2f2f2" fill-rule="evenodd" stroke="#000" stroke-width=".32" stroke-linecap="round" stroke-linejoin="round"/><path d="M133.147 234.597l-.32-4.16-3.521-.96-1.6 3.84 5.44 1.28z" fill="#d9d9d9" fill-rule="evenodd" stroke="#000" stroke-width=".32" stroke-linecap="round" stroke-linejoin="round"/><path d="M133.147 234.597l6.4-3.2-1.6-3.2-5.12 2.24.32 4.16z" fill="#bfbfbf" fill-rule="evenodd" stroke="#000" stroke-width=".32" stroke-linecap="round" stroke-linejoin="round"/><path d="M129.306 229.476l5.12-1.92 3.521.64-5.12 2.24-3.521-.96z" fill="#f2f2f2" fill-rule="evenodd" stroke="#000" stroke-width=".32" stroke-linecap="round" stroke-linejoin="round"/><path d="M138.908 235.557l-.32-4.16-3.521-.96-1.6 4.16 5.44.96z" fill="#d9d9d9" fill-rule="evenodd" stroke="#000" stroke-width=".32" stroke-linecap="round" stroke-linejoin="round"/><path d="M138.908 235.557l6.401-3.2-1.6-3.2-5.121 2.24.32 4.16z" fill="#bfbfbf" fill-rule="evenodd" stroke="#000" stroke-width=".32" stroke-linecap="round" stroke-linejoin="round"/><path d="M135.067 230.436l5.12-1.92 3.522.64-5.121 2.24-3.521-.96z" fill="#f2f2f2" fill-rule="evenodd" stroke="#000" stroke-width=".32" stroke-linecap="round" stroke-linejoin="round"/><path d="M145.309 236.837l-.32-4.16-3.52-.64-1.601 3.84 5.441.96z" fill="#a6a6a6" fill-rule="evenodd" stroke="#000" stroke-width=".32" stroke-linecap="round" stroke-linejoin="round"/><path d="M141.468 232.037l11.843-5.121 3.84.64-12.162 5.12-3.52-.64z" fill="#bfbfbf" fill-rule="evenodd" stroke="#000" stroke-width=".32" stroke-linecap="round" stroke-linejoin="round"/><path d="M145.309 236.837l12.803-6.08-.96-3.201-12.163 5.12.32 4.161z" fill="#8c8c8c" fill-rule="evenodd" stroke="#000" stroke-width=".32" stroke-linecap="round" stroke-linejoin="round"/><path d="M120.664 236.197l-.32-4.16-3.52-.64-1.601 3.84 5.441.96z" fill="#d9d9d9" fill-rule="evenodd" stroke="#000" stroke-width=".32" stroke-linecap="round" stroke-linejoin="round"/><path d="M120.664 236.197l6.401-3.2-1.6-3.2-5.121 2.24.32 4.16z" fill="#bfbfbf" fill-rule="evenodd" stroke="#000" stroke-width=".32" stroke-linecap="round" stroke-linejoin="round"/><path d="M116.823 231.397l5.121-1.92 3.521.32-5.121 2.24-3.52-.64z" fill="#f2f2f2" fill-rule="evenodd" stroke="#000" stroke-width=".32" stroke-linecap="round" stroke-linejoin="round"/><path d="M126.745 237.478l-.64-4.161-3.52-.96-1.6 4.16 5.76.96z" fill="#d9d9d9" fill-rule="evenodd" stroke="#000" stroke-width=".32" stroke-linecap="round" stroke-linejoin="round"/><path d="M126.745 237.478l6.402-3.201-1.92-3.2-5.122 2.24.64 4.16z" fill="#bfbfbf" fill-rule="evenodd" stroke="#000" stroke-width=".32" stroke-linecap="round" stroke-linejoin="round"/><path d="M122.584 232.357l5.442-1.92 3.2.64-5.12 2.24-3.522-.96z" fill="#f2f2f2" fill-rule="evenodd" stroke="#000" stroke-width=".32" stroke-linecap="round" stroke-linejoin="round"/><path d="M132.506 238.438l-.32-4.161-3.84-.96-1.6 4.16 5.76.96z" fill="#d9d9d9" fill-rule="evenodd" stroke="#000" stroke-width=".32" stroke-linecap="round" stroke-linejoin="round"/><path d="M132.506 238.438l6.402-3.2-1.6-3.201-5.122 2.24.32 4.16z" fill="#bfbfbf" fill-rule="evenodd" stroke="#000" stroke-width=".32" stroke-linecap="round" stroke-linejoin="round"/><path d="M128.346 233.317l5.44-1.92 3.521.64-5.12 2.24-3.841-.96z" fill="#f2f2f2" fill-rule="evenodd" stroke="#000" stroke-width=".32" stroke-linecap="round" stroke-linejoin="round"/><path d="M120.024 240.358l6.721-2.88-1.92-3.201-5.121 1.92.32 4.161z" fill="#bfbfbf" fill-rule="evenodd" stroke="#000" stroke-width=".32" stroke-linecap="round" stroke-linejoin="round"/><path d="M120.024 240.358l-.32-4.16-8.962-1.921-2.56 3.84 11.842 2.241z" fill="#d9d9d9" fill-rule="evenodd" stroke="#000" stroke-width=".32" stroke-linecap="round" stroke-linejoin="round"/><path d="M110.742 234.277l4.801-1.92 9.282 1.92-5.121 1.92-8.962-1.92z" fill="#f2f2f2" fill-rule="evenodd" stroke="#000" stroke-width=".32" stroke-linecap="round" stroke-linejoin="round"/><path d="M126.425 241.638l-.32-4.16-3.84-.64-1.6 3.84 5.76.96z" fill="#d9d9d9" fill-rule="evenodd" stroke="#000" stroke-width=".32" stroke-linecap="round" stroke-linejoin="round"/><path d="M126.425 241.638l6.401-3.2-1.6-2.88-5.12 1.92.32 4.16z" fill="#bfbfbf" fill-rule="evenodd" stroke="#000" stroke-width=".32" stroke-linecap="round" stroke-linejoin="round"/><path d="M122.264 236.837l5.441-1.92 3.521.64-5.12 1.92-3.842-.64z" fill="#f2f2f2" fill-rule="evenodd" stroke="#000" stroke-width=".32" stroke-linecap="round" stroke-linejoin="round"/><path d="M132.506 242.918l-.32-4.16-3.52-.64-1.6 3.84 5.44.96z" fill="#a6a6a6" fill-rule="evenodd" stroke="#000" stroke-width=".32" stroke-linecap="round" stroke-linejoin="round"/><path d="M128.666 238.118l11.522-5.121 3.84.96-11.842 4.8-3.52-.64z" fill="#bfbfbf" fill-rule="evenodd" stroke="#000" stroke-width=".32" stroke-linecap="round" stroke-linejoin="round"/><path d="M132.506 242.918l12.803-6.08-1.28-2.881-11.843 4.8.32 4.161z" fill="#8c8c8c" fill-rule="evenodd" stroke="#000" stroke-width=".32" stroke-linecap="round" stroke-linejoin="round"/></svg>